<?xml version="1.0" encoding="utf-8"?>
<!-- Generator: Adobe Illustrator 16.0.0, SVG Export Plug-In . SVG Version: 6.00 Build 0)  -->
<!DOCTYPE svg PUBLIC "-//W3C//DTD SVG 1.1//EN" "http://www.w3.org/Graphics/SVG/1.1/DTD/svg11.dtd">
<svg version="1.1" xmlns="http://www.w3.org/2000/svg" xmlns:xlink="http://www.w3.org/1999/xlink" x="0px" y="0px" width="445px"
	 height="287px" viewBox="0 0 445 287" enable-background="new 0 0 445 287" xml:space="preserve">
<g id="shadow">
	<path opacity="0.4" fill-rule="evenodd" clip-rule="evenodd" fill="#142E4F" d="M412.43,181.537
		c-17.997-21.997-39.993-24.996-39.993-24.996s-2-39.699-24.996-59.991c-21.177-18.686-54.991-13.998-54.991-13.998
		s-16.998-40.994-67.989-40.994s-66.989,40.994-66.989,40.994s-30.328-9.916-55.991,12.998
		c-27.996,24.996-27.996,59.99-27.996,59.99s-31.995,3-45.992,24.996c-15.126,23.769-14.998,48.992-5,55.991
		c2.986,2.09,39.06,3.467,88.452,4.21c0.044,4.085-0.261,9.343-1.632,14.24c-3.989,14.245-12.831,28.542-12.831,28.542
		s25.729-10.967,42.947-23.559c9.018-6.596,15.428-13.701,19.35-18.721c113.863,0.753,258.54-1.045,264.651-4.712
		C433.427,230.529,430.427,203.533,412.43,181.537z"/>
</g>
<g id="cloud">
	<linearGradient id="SVGID_1_" gradientUnits="userSpaceOnUse" x1="222.2842" y1="263.5205" x2="222.2842" y2="21.5591">
		<stop  offset="0" style="stop-color:#CEE6F1"/>
		<stop  offset="1" style="stop-color:#F8FCFD"/>
	</linearGradient>
	
		<path fill-rule="evenodd" clip-rule="evenodd" fill="url(#SVGID_1_)" stroke="#EEF4F7" stroke-width="16" stroke-miterlimit="10" d="
		M412.43,161.537c-17.997-21.997-39.993-24.996-39.993-24.996s-2-39.699-24.996-59.991c-21.177-18.686-54.991-13.998-54.991-13.998
		s-16.998-40.994-67.989-40.994s-66.989,40.994-66.989,40.994s-30.328-9.916-55.991,12.998
		c-27.996,24.996-27.996,59.99-27.996,59.99s-31.995,3-45.992,24.996c-15.126,23.769-14.998,48.992-5,55.991
		c2.986,2.09,39.06,3.467,88.452,4.21c0.044,4.085-0.261,9.343-1.632,14.24c-3.989,14.245-12.831,28.542-12.831,28.542
		s25.729-10.967,42.947-23.559c9.018-6.596,15.428-13.701,19.35-18.721c113.863,0.753,258.54-1.045,264.651-4.712
		C433.427,210.529,430.427,183.533,412.43,161.537z"/>
</g>
<g id="face">
	<path fill-rule="evenodd" clip-rule="evenodd" fill="#4B9CAF" d="M138.474,133.142c-0.913,0-1.823-0.346-2.521-1.029
		c-1.327-1.301-1.446-3.398-0.274-4.841c0.575-0.708,14.246-17.328,28.79-17.328c14.662,0,23.538,11.972,23.908,12.481
		c1.048,1.44,0.884,3.431-0.385,4.681c-0.696,0.686-1.609,1.036-2.528,1.036c-0.756,0-1.515-0.237-2.159-0.72
		c-0.058-0.042-7.314-5.279-18.836-5.279c-11.546,0-23.551,10.045-23.671,10.146C140.125,132.86,139.299,133.142,138.474,133.142z"
		/>
	<path fill-rule="evenodd" clip-rule="evenodd" fill="#4B9CAF" d="M309.446,133.142c-0.824,0-1.649-0.281-2.322-0.849l0,0
		c-0.121-0.102-12.181-10.149-23.673-10.149c-11.663,0-18.766,5.226-18.836,5.279c-0.644,0.483-1.403,0.72-2.159,0.72
		c-0.918,0-1.832-0.35-2.528-1.036c-1.269-1.25-1.433-3.241-0.385-4.682c0.371-0.51,9.246-12.481,23.908-12.481
		c14.544,0,28.215,16.62,28.79,17.328c1.172,1.442,1.053,3.54-0.274,4.841C311.269,132.796,310.358,133.142,309.446,133.142z"/>
	<path fill-rule="evenodd" clip-rule="evenodd" fill="#4B9CAF" d="M224.46,187.133c-28.911,0-42.645-13.798-49.246-20.428
		l-0.227-0.228c-1.244-0.593-5.74-1.721-9.217-2.408c-1.923-0.38-3.189-2.23-2.846-4.161c0.309-1.742,1.824-2.972,3.541-2.972
		c0.186,0,0.374,0.015,0.563,0.044c0.023,0.003,2.619,0.403,5.247,0.403c1.735,0,2.711-0.171,3.225-0.314
		c1.318-0.368,4.608-1.888,6.372-2.76c0.509-0.251,1.054-0.373,1.592-0.373c1.097,0,2.168,0.501,2.868,1.423
		c1.043,1.373,0.966,3.294-0.185,4.58c-0.628,0.702-1.287,1.524-1.79,2.216c4.955,4.436,16.488,12.778,40.102,12.778
		c23.615,0,35.148-8.343,40.103-12.779c-0.503-0.692-1.162-1.514-1.79-2.214c-1.152-1.285-1.23-3.206-0.187-4.58
		c0.699-0.922,1.772-1.424,2.869-1.424c0.539,0,1.083,0.121,1.593,0.373c1.766,0.872,5.057,2.393,6.372,2.76
		c0.513,0.143,1.49,0.314,3.225,0.314c2.651,0,5.221-0.399,5.247-0.403c0.189-0.03,0.377-0.044,0.563-0.044
		c1.716,0,3.231,1.229,3.541,2.972c0.343,1.93-0.922,3.78-2.846,4.161c-3.553,0.703-7.969,1.81-9.217,2.408l-0.227,0.229
		C267.105,173.335,253.371,187.133,224.46,187.133z"/>
</g>
</svg>
